<svg xmlns="http://www.w3.org/2000/svg" viewBox="0 0 100 100">
  <!-- Shadow -->
  <ellipse cx="50" cy="97" rx="26" ry="5" fill="rgba(0,0,0,0.25)"/>
  <!-- Gown -->
  <path d="M 20 95 L 30 60 Q 50 67 70 60 L 80 95 Z" fill="#4488cc"/>
  <!-- Bodice -->
  <rect x="35" y="53" width="30" height="18" rx="7" fill="#5599dd"/>
  <!-- Wings (left) -->
  <path d="M 32 55 Q 10 45 5 28 Q 15 32 25 42 Q 28 38 32 42 Z" fill="#aaddff" opacity="0.85" stroke="#88bbee" stroke-width="1"/>
  <path d="M 32 62 Q 8 60 2 48 Q 14 52 27 55 Z" fill="#aaddff" opacity="0.7" stroke="#88bbee" stroke-width="1"/>
  <!-- Wings (right) -->
  <path d="M 68 55 Q 90 45 95 28 Q 85 32 75 42 Q 72 38 68 42 Z" fill="#aaddff" opacity="0.85" stroke="#88bbee" stroke-width="1"/>
  <path d="M 68 62 Q 92 60 98 48 Q 86 52 73 55 Z" fill="#aaddff" opacity="0.7" stroke="#88bbee" stroke-width="1"/>
  <!-- Neck -->
  <rect x="43" y="45" width="14" height="11" fill="#ffd0a0"/>
  <!-- Head -->
  <ellipse cx="50" cy="33" rx="23" ry="22" fill="#ffe0b0"/>
  <!-- Big blonde hair -->
  <ellipse cx="50" cy="18" rx="22" ry="16" fill="#f0d020"/>
  <ellipse cx="30" cy="28" rx="10" ry="16" fill="#e8c818"/>
  <ellipse cx="70" cy="28" rx="10" ry="16" fill="#e8c818"/>
  <path d="M 27 22 Q 26 35 28 45" stroke="#d4b010" stroke-width="4" fill="none" stroke-linecap="round"/>
  <path d="M 73 22 Q 74 35 72 45" stroke="#d4b010" stroke-width="4" fill="none" stroke-linecap="round"/>
  <!-- Eyes (kind expression) -->
  <ellipse cx="42" cy="33" rx="5.5" ry="5.5" fill="white"/>
  <ellipse cx="58" cy="33" rx="5.5" ry="5.5" fill="white"/>
  <circle cx="43" cy="34" r="3.5" fill="#3d2090"/>
  <circle cx="59" cy="34" r="3.5" fill="#3d2090"/>
  <circle cx="44" cy="32.5" r="1.3" fill="white"/>
  <circle cx="60" cy="32.5" r="1.3" fill="white"/>
  <!-- Nose -->
  <ellipse cx="50" cy="40" rx="4" ry="3" fill="#e8c8a0"/>
  <!-- Smile -->
  <path d="M 42 45 Q 50 51 58 45" stroke="#c89080" stroke-width="2" fill="none" stroke-linecap="round"/>
  <!-- Glasses -->
  <circle cx="42" cy="33" r="7.5" fill="none" stroke="#c8a060" stroke-width="2"/>
  <circle cx="58" cy="33" r="7.5" fill="none" stroke="#c8a060" stroke-width="2"/>
  <path d="M 49.5 33 L 50.5 33" stroke="#c8a060" stroke-width="2"/>
  <!-- Wand -->
  <line x1="72" y1="30" x2="90" y2="10" stroke="#c8a030" stroke-width="3" stroke-linecap="round"/>
  <polygon points="90,2 94,10 86,10" fill="#FFD700" stroke="#c8a000" stroke-width="1"/>
  <!-- Sparkles -->
  <circle cx="88" cy="6" r="2" fill="#FFD700" opacity="0.9"/>
  <circle cx="82" cy="4" r="1.5" fill="#FFD700" opacity="0.7"/>
  <circle cx="92" cy="14" r="1.5" fill="#FFD700" opacity="0.7"/>
</svg>
